<?xml version="1.0" standalone="yes"?>
<svg width="790" height="149">
<path style="fill:#000000; stroke:none;" d="M0 0L0 149L790 149L790 0L0 0z"/>
<path style="fill:#867e6f; stroke:none;" d="M153 22L153 23L158 23L153 22z"/>
<path style="fill:#d8cab2; stroke:none;" d="M163 53C164.872 49.4851 166.421 45.7996 167.641 42C168.469 39.4212 169.11 36.7306 168.877 34C167.379 16.5203 146.192 22.7651 142.005 35C140.953 38.0738 139.023 42.4868 141.607 45.3009C143.787 47.6746 148.055 48.637 151 49.6559C154.944 51.0205 158.914 52.1545 163 53z"/>
<path style="fill:#655f53; stroke:none;" d="M147 25L148 26L147 25z"/>
<path style="fill:#686256; stroke:none;" d="M164 25L165 26L164 25z"/>
<path style="fill:#736b5e; stroke:none;" d="M146 26L147 27L146 26z"/>
<path style="fill:#766e61; stroke:none;" d="M165 26L166 27L165 26z"/>
<path style="fill:#f43900; stroke:none;" d="M105.001 36.6535C88.5613 41.754 99.1743 68.9316 112.961 66.169C116.282 65.5034 118.507 61.4799 120.373 59C122.586 56.0601 126.755 52.0174 126.454 48.0147C125.875 40.2997 111.489 34.6406 105.001 36.6535z"/>
<path style="fill:#4e4940; stroke:none;" d="M139.333 42.6667L139.667 43.3333L139.333 42.6667z"/>
<path style="fill:#6b1900; stroke:none;" d="M127.333 47.6667L127.667 48.3333L127.333 47.6667z"/>
<path style="fill:#393630; stroke:none;" d="M165.333 47.6667L165.667 48.3333L165.333 47.6667z"/>
<path style="fill:#766e61; stroke:none;" d="M164 50L165 51L164 50z"/>
<path style="fill:#7e1d00; stroke:none;" d="M96.3333 51.6667L96.6667 52.3333L96.3333 51.6667z"/>
<path style="fill:#9f9483; stroke:none;" d="M159.667 52.3333L160.333 52.6667L159.667 52.3333z"/>
<path style="fill:#324b62; stroke:none;" d="M140.667 57.3333L141.333 57.6667L140.667 57.3333z"/>
<path style="fill:#7fbef7; stroke:none;" d="M177 83C175.886 61.5364 148.338 51.5771 131 60.9159C115.093 69.4839 119.815 80.5294 114.397 93.8302C111.35 101.307 103.863 103.568 104.13 113C104.348 120.747 109.362 128.952 117 131.347C124.375 133.66 134.319 132 142 132C162.796 132 206.488 140.762 215.87 116C225.431 90.7684 199.514 71.6213 177 83z"/>
<path style="fill:#6597c4; stroke:none;" d="M147 57L147 58L151 58L147 57z"/>
<path style="fill:#4d7295; stroke:none;" d="M136.667 58.3333L137.333 58.6667L136.667 58.3333z"/>
<path style="fill:#40607d; stroke:none;" d="M162 61L163 62L162 61z"/>
<path style="fill:#3c5974; stroke:none;" d="M165 63L166 64L165 63z"/>
<path style="fill:#3f5e7a; stroke:none;" d="M118 73L119 74L118 73z"/>
<path style="fill:#355068; stroke:none;" d="M184.667 79.3333L185.333 79.6667L184.667 79.3333z"/>
<path style="fill:#354f66; stroke:none;" d="M196.667 79.3333L197.333 79.6667L196.667 79.3333z"/>
<path style="fill:#547ea4; stroke:none;" d="M115.333 80.6667L115.667 81.3333L115.333 80.6667z"/>
<path style="fill:#5d8bb5; stroke:none;" d="M177.667 82.3333L178.333 82.6667L177.667 82.3333z"/>
<path style="fill:#3c5a75; stroke:none;" d="M206 83L207 84L206 83z"/>
<path style="fill:#3d5b77; stroke:none;" d="M114 84L114 93L115 93L114 84z"/>
<path style="fill:#606060; stroke:none;" d="M356 84L356 85L362 85L356 84z"/>
<path style="fill:#8b8b8b; stroke:none;" d="M443 84L443 85L446 85L443 84z"/>
<path style="fill:#ffffff; stroke:none;" d="M438 98L431 98L431 101L438 101L438 126L443 126L443 101L453 101L453 98L443 98C443.084 90.906 445.63 87.2392 453 87L453 84C442.179 84.0896 438.007 87.0487 438 98z"/>
<path style="fill:#9f9f9f; stroke:none;" d="M453 84L446 87L446 88L454 88L453 84M356 85L356 127L362 127L362 126L357 126C357 114.304 360.511 95.7499 356 85z"/>
<path style="fill:#ffffff; stroke:none;" d="M357 85L357 126L361 126L361 85L357 85z"/>
<path style="fill:#dfdfdf; stroke:none;" d="M361 85L361 126L362 126C362 114.304 365.511 95.7499 361 85z"/>
<path style="fill:#777777; stroke:none;" d="M441 85L442 86L441 85z"/>
<path style="fill:#404040; stroke:none;" d="M250 87L250 88L282 88L282 92C283.584 87.166 278.714 87.0264 275 87.0008C266.668 86.9433 258.333 87 250 87z"/>
<path style="fill:#bfbfbf; stroke:none;" d="M309 87L309 93L315 93L315 87L309 87z"/>
<path style="fill:#404040; stroke:none;" d="M385 87L385 88L391 88L385 87z"/>
<path style="fill:#ffffff; stroke:none;" d="M602 87L602 92L607 92L607 87L602 87z"/>
<path style="fill:#606060; stroke:none;" d="M607 87L607 93L608 93L607 87z"/>
<path style="fill:#ffffff; stroke:none;" d="M250 88L250 91C253.526 91 259.661 89.8675 262.397 92.6034C267.557 97.7635 264 118.893 264 126L269 126L269 91L282 91L282 88L250 88M310 88L310 92L314 92L314 88L310 88z"/>
<path style="fill:#9f9f9f; stroke:none;" d="M385 88L385 127L391 127L391 126L386 126C386 115.089 389.211 98.036 385 88z"/>
<path style="fill:#ffffff; stroke:none;" d="M386 88L386 126L391 126L391 88L386 88z"/>
<path style="fill:#202020; stroke:none;" d="M391 88L391 127L392 127C392 115.828 395.311 98.274 391 88z"/>
<path style="fill:#606060; stroke:none;" d="M580 88L580 89L586 89L580 88z"/>
<path style="fill:#bfbfbf; stroke:none;" d="M580 89L580 98L581 98L580 89z"/>
<path style="fill:#ffffff; stroke:none;" d="M581 89L581 98L574 98L574 101L581 101C581 106.982 578.206 122.454 584.148 125.972C587.353 127.87 592.419 127 596 127L596 124C582.556 123.841 585 111.074 585 101L596 101L596 98L585 98L585 89L581 89z"/>
<path style="fill:#9f9f9f; stroke:none;" d="M585 89L585 98L586 98L585 89z"/>
<path style="fill:#606060; stroke:none;" d="M443 90L443 98L453 98L453 97L444 97L443 90z"/>
<path style="fill:#bfbfbf; stroke:none;" d="M250 91L250 92L263 92L250 91M269 91L269 92L282 92L269 91z"/>
<path style="fill:#dfdfdf; stroke:none;" d="M263 92L263 126L264 126L263 92z"/>
<path style="fill:#202020; stroke:none;" d="M269 92L269 127L270 127L269 92z"/>
<path style="fill:#bfbfbf; stroke:none;" d="M602 92L602 93L607 93L602 92z"/>
<path style="fill:#606060; stroke:none;" d="M288 97L288 98L293 101C293.777 97.5456 290.94 97.2268 288 97z"/>
<path style="fill:#c7c7c7; stroke:none;" d="M298 97L298 98L301 98L298 97z"/>
<path style="fill:#ffffff; stroke:none;" d="M293 101L289 98L289 126L293 126C293 115.436 289.863 101.657 304 101L304 97L293 101z"/>
<path style="fill:#606060; stroke:none;" d="M309 97L309 98L315 98L309 97z"/>
<path style="fill:#cbcbcb; stroke:none;" d="M325 97L325 98L333 98L325 97z"/>
<path style="fill:#ffffff; stroke:none;" d="M325 98L325 101C333.276 100.83 341.646 99.1076 342 110C337.45 110 330.189 108.635 326.148 111.028C321.648 113.692 321.778 123.033 326.228 125.682C331.894 129.054 340.751 125.859 347 126C347 119.007 350.091 102.364 342.867 98.3179C337.756 95.4561 330.532 97.9542 325 98z"/>
<path style="fill:#505050; stroke:none;" d="M341.667 97.3333L342.333 97.6667L341.667 97.3333z"/>
<path style="fill:#606060; stroke:none;" d="M401 97L401 98L406 98L401 97z"/>
<path style="fill:#a3a3a3; stroke:none;" d="M410.667 97.3333L411.333 97.6667L410.667 97.3333z"/>
<path style="fill:#ffffff; stroke:none;" d="M407 100L406 100L401 98L401 126L406 126C406 120.065 403.939 109.365 407.028 104.148C409.545 99.8969 417.315 99.9165 419.821 104.148C422.994 109.507 421 119.933 421 126L425 126C425 115.203 426.627 85.3948 407 100z"/>
<path style="fill:#b3b3b3; stroke:none;" d="M418 97L418 98L421 98L418 97z"/>
<path style="fill:#606060; stroke:none;" d="M431 97L431 98L438 98L431 97z"/>
<path style="fill:#ababab; stroke:none;" d="M463.667 97.3333L464.333 97.6667L463.667 97.3333z"/>
<path style="fill:#ffffff; stroke:none;" d="M465.001 97.483C455.97 99.4686 453.66 116.939 458.858 123.697C462.294 128.163 472.094 127.694 476.985 126.467C484.688 124.534 485.933 105.863 481.397 100.303C478.018 96.1621 469.708 96.4482 465.001 97.483z"/>
<path style="fill:#707070; stroke:none;" d="M476.667 97.3333L477.333 97.6667L476.667 97.3333z"/>
<path style="fill:#7f7f7f; stroke:none;" d="M492 97L492 98L498 101C497.8 97.1621 495.502 97.1157 492 97z"/>
<path style="fill:#8f8f8f; stroke:none;" d="M501.667 97.3333L502.333 97.6667L501.667 97.3333z"/>
<path style="fill:#ffffff; stroke:none;" d="M497 101L493 98L493 126L497 126C497 120.023 494.975 109.468 498.179 104.228C500.729 100.058 508.44 99.8706 510.972 104.148C514.061 109.365 512 120.065 512 126L517 126C517 120.065 514.939 109.365 518.028 104.148C520.457 100.045 527.543 100.045 529.972 104.148C533.061 109.365 531 120.065 531 126L536 126C536 119.054 537.983 108.543 535.397 102.055C532.316 94.3263 520.789 96.799 516 101C510.562 95.2871 502.809 96.572 497 101z"/>
<path style="fill:#8b8b8b; stroke:none;" d="M510.667 97.3333L511.333 97.6667L510.667 97.3333z"/>
<path style="fill:#afafaf; stroke:none;" d="M521.667 97.3333L522.333 97.6667L521.667 97.3333z"/>
<path style="fill:#474747; stroke:none;" d="M530.667 97.3333L531.333 97.6667L530.667 97.3333z"/>
<path style="fill:#bfbfbf; stroke:none;" d="M546 97L546 98L554 98L546 97z"/>
<path style="fill:#ffffff; stroke:none;" d="M546 98L546 101C554.627 101 562.871 99.1076 563 110C558.463 110 551.269 108.663 547.279 111.179C535.71 118.473 552.965 133.403 563 124L568 126C568 119.777 570.924 103.13 565.566 98.9383C560.523 94.9919 551.792 97.9521 546 98z"/>
<path style="fill:#707070; stroke:none;" d="M562.667 97.3333L563.333 97.6667L562.667 97.3333z"/>
<path style="fill:#606060; stroke:none;" d="M574 97L574 98L580 98L574 97M586 97L586 98L596 98L586 97M602 97L602 98L607 98L607 127C609.845 120.219 611.036 97.7041 602 97z"/>
<path style="fill:#979797; stroke:none;" d="M621.667 97.3333L622.333 97.6667L621.667 97.3333z"/>
<path style="fill:#ffffff; stroke:none;" d="M637 123C632.859 123.178 627.811 124.917 624.148 122.257C619.31 118.744 619.27 105.247 624.148 101.746C627.706 99.1929 632.944 100.916 637 101C634.985 94.1101 619.161 95.8859 616.63 102.065C614.701 106.772 614.506 120.916 618.343 124.583C622.349 128.413 635.32 129.003 637 123z"/>
<path style="fill:#707070; stroke:none;" d="M634.667 97.3333L635.333 97.6667L634.667 97.3333z"/>
<path style="fill:#9b9b9b; stroke:none;" d="M649.667 97.3333L650.333 97.6667L649.667 97.3333z"/>
<path style="fill:#ffffff; stroke:none;" d="M644 123C646.142 130.322 663.752 128.109 665.657 120.981C669.291 107.393 655.917 113.338 650.218 108.523C644.522 103.711 652.665 99.8973 657 100.278C659.362 100.485 661.618 100.926 664 101L664 98C657.819 97.2188 634 97.9307 644.742 110.566C648.303 114.754 654.682 111.415 658.681 114.742C668.958 123.291 647.322 123.143 644 123z"/>
<path style="fill:#979797; stroke:none;" d="M660 97L660 98L664 101L665 101L665 97L660 97z"/>
<path style="fill:#3f5e7a; stroke:none;" d="M110 98L111 99L110 98z"/>
<path style="fill:#9f9f9f; stroke:none;" d="M288 98L288 127L294 127L294 126L289 126L288 98z"/>
<path style="fill:#a7a7a7; stroke:none;" d="M296 98L297 99L296 98z"/>
<path style="fill:#9f9f9f; stroke:none;" d="M309 98L309 127L315 127L315 126L310 126L309 98z"/>
<path style="fill:#ffffff; stroke:none;" d="M310 98L310 126L314 126L314 98L310 98z"/>
<path style="fill:#bfbfbf; stroke:none;" d="M314 98L314 126L315 126L314 98z"/>
<path style="fill:#606060; stroke:none;" d="M324 98L324 101L325 101L324 98z"/>
<path style="fill:#737373; stroke:none;" d="M344 98L345 99L344 98z"/>
<path style="fill:#202020; stroke:none;" d="M400 98L400 127L401 127L400 98z"/>
<path style="fill:#4c4c4c; stroke:none;" d="M406.333 98.6667L406.667 99.3333L406.333 98.6667z"/>
<path style="fill:#9f9f9f; stroke:none;" d="M408 98L409 99L408 98z"/>
<path style="fill:#676767; stroke:none;" d="M460 98L461 99L460 98z"/>
<path style="fill:#dfdfdf; stroke:none;" d="M492 98L492 126L493 126L492 98z"/>
<path style="fill:#777777; stroke:none;" d="M499 98L500 99L499 98z"/>
<path style="fill:#6b6b6b; stroke:none;" d="M518 98L519 99L518 98z"/>
<path style="fill:#404040; stroke:none;" d="M573 98L573 101L574 101L573 98z"/>
<path style="fill:#ffffff; stroke:none;" d="M602 98L602 126L607 126L607 98L602 98z"/>
<path style="fill:#9f9f9f; stroke:none;" d="M619 98L620 99L619 98z"/>
<path style="fill:#404040; stroke:none;" d="M637 98L637 102L638 102L637 98z"/>
<path style="fill:#737373; stroke:none;" d="M646 98L647 99L646 98z"/>
<path style="fill:#3e5d79; stroke:none;" d="M109 99L110 100L109 99z"/>
<path style="fill:#496d8e; stroke:none;" d="M217.333 99.6667L217.667 100.333L217.333 99.6667z"/>
<path style="fill:#878787; stroke:none;" d="M345 99L346 100L345 99z"/>
<path style="fill:#9f9f9f; stroke:none;" d="M459 99L460 100L459 99z"/>
<path style="fill:#686868; stroke:none;" d="M481 99L482 100L481 99z"/>
<path style="fill:#606060; stroke:none;" d="M515 99L516 100L515 99z"/>
<path style="fill:#5c5c5c; stroke:none;" d="M534 99L535 100L534 99z"/>
<path style="fill:#3a5670; stroke:none;" d="M108 100L109 101L108 100z"/>
<path style="fill:#c3c3c3; stroke:none;" d="M331 100L331 101L336 101L331 100z"/>
<path style="fill:#606060; stroke:none;" d="M458 100L459 101L458 100z"/>
<path style="fill:#9f9f9f; stroke:none;" d="M466 100L466 101L475 101L466 100z"/>
<path style="fill:#8c8c8c; stroke:none;" d="M516 100L517 101L516 100z"/>
<path style="fill:#979797; stroke:none;" d="M567 100L568 101L567 100z"/>
<path style="fill:#a7a7a7; stroke:none;" d="M625 100L625 101L631 101L625 100z"/>
<path style="fill:#9f9f9f; stroke:none;" d="M652 100L652 101L659 101L652 100M298 101L298 102L304 102L298 101z"/>
<path style="fill:#585858; stroke:none;" d="M339 101L340 102L339 101z"/>
<path style="fill:#cbcbcb; stroke:none;" d="M346.333 101.667L346.667 102.333L346.333 101.667z"/>
<path style="fill:#a3a3a3; stroke:none;" d="M408 101L409 102L408 101z"/>
<path style="fill:#949494; stroke:none;" d="M418 101L419 102L418 101z"/>
<path style="fill:#8f8f8f; stroke:none;" d="M425.333 101.667L425.667 102.333L425.333 101.667z"/>
<path style="fill:#202020; stroke:none;" d="M431 101L431 102L437 102L437 127L438 127L438 101L431 101z"/>
<path style="fill:#404040; stroke:none;" d="M443 101L443 127L444 127L443 101z"/>
<path style="fill:#202020; stroke:none;" d="M444 101L444 102L453 102L444 101z"/>
<path style="fill:#000000; stroke:none;" d="M464.603 102.028C457.425 107.713 464.208 131.625 476.397 121.972C483.537 116.317 476.357 92.7188 464.603 102.028z"/>
<path style="fill:#747474; stroke:none;" d="M476 101L477 102L476 101z"/>
<path style="fill:#8c8c8c; stroke:none;" d="M509 101L510 102L509 101z"/>
<path style="fill:#848484; stroke:none;" d="M528 101L529 102L528 101z"/>
<path style="fill:#585858; stroke:none;" d="M546 101L546 102L549 102L546 101z"/>
<path style="fill:#a0a0a0; stroke:none;" d="M561 101L562 102L561 101z"/>
<path style="fill:#bfbfbf; stroke:none;" d="M580 101L580 121L581 121L580 101z"/>
<path style="fill:#9f9f9f; stroke:none;" d="M585 101L585 119L586 119L585 101z"/>
<path style="fill:#202020; stroke:none;" d="M586 101L586 102L596 102L586 101z"/>
<path style="fill:#5c5c5c; stroke:none;" d="M616 101L617 102L616 101z"/>
<path style="fill:#787878; stroke:none;" d="M634 101L634 102L637 102L634 101z"/>
<path style="fill:#9b9b9b; stroke:none;" d="M643 101L644 102L643 101z"/>
<path style="fill:#989898; stroke:none;" d="M649 101L650 102L649 101z"/>
<path style="fill:#383838; stroke:none;" d="M663.667 101.333L664.333 101.667L663.667 101.333z"/>
<path style="fill:#a4a4a4; stroke:none;" d="M295 102L296 103L295 102z"/>
<path style="fill:#5c5c5c; stroke:none;" d="M419 102L420 103L419 102z"/>
<path style="fill:#808080; stroke:none;" d="M477 102L478 103L477 102z"/>
<path style="fill:#747474; stroke:none;" d="M498 102L499 103L498 102z"/>
<path style="fill:#888888; stroke:none;" d="M562 102L563 103L562 102z"/>
<path style="fill:#7f7f7f; stroke:none;" d="M568 102L568 126L564 124L563 124C563.729 127.403 565.806 126.987 569 127L568 102z"/>
<path style="fill:#a8a8a8; stroke:none;" d="M648 102L649 103L648 102z"/>
<path style="fill:#848484; stroke:none;" d="M294 103L295 104L294 103z"/>
<path style="fill:#7f7f7f; stroke:none;" d="M341 103L341 109L328 109L328 110L342 110L341 103z"/>
<path style="fill:#404040; stroke:none;" d="M406 103L406 127L407 127L406 103z"/>
<path style="fill:#dfdfdf; stroke:none;" d="M425 103L425 126L426 126L425 103z"/>
<path style="fill:#cbcbcb; stroke:none;" d="M457.333 103.667L457.667 104.333L457.333 103.667z"/>
<path style="fill:#878787; stroke:none;" d="M483 103L483 106L484 106L483 103z"/>
<path style="fill:#404040; stroke:none;" d="M511 103L511 127L512 127L511 103z"/>
<path style="fill:#202020; stroke:none;" d="M517 103L517 127L518 127L517 103z"/>
<path style="fill:#404040; stroke:none;" d="M530 103L530 127L531 127L530 103z"/>
<path style="fill:#202020; stroke:none;" d="M621 103L621 121L622 121L621 103z"/>
<path style="fill:#404040; stroke:none;" d="M648 103L648 108L649 108L648 103z"/>
<path style="fill:#7f7f7f; stroke:none;" d="M420 104L420 127L426 127L426 126L421 126L420 104M462 104L462 121L463 121L462 104M497 104L497 126L492 126L492 127L498 127L497 104z"/>
<path style="fill:#202020; stroke:none;" d="M536 104L536 127L537 127L536 104z"/>
<path style="fill:#606060; stroke:none;" d="M615 104L615 120L616 120L615 104z"/>
<path style="fill:#bfbfbf; stroke:none;" d="M293 105L293 126L294 126L293 105M478 105L478 120L479 120L478 105z"/>
<path style="fill:#202020; stroke:none;" d="M347 106L347 127L348 127L347 106z"/>
<path style="fill:#bfbfbf; stroke:none;" d="M483 106L483 121L484 121L483 106z"/>
<path style="fill:#38546d; stroke:none;" d="M104.333 107.667L104.667 108.333L104.333 107.667z"/>
<path style="fill:#51799d; stroke:none;" d="M217 109L217 112L218 112L217 109z"/>
<path style="fill:#7f7f7f; stroke:none;" d="M550 109L550 110L563 110L550 109z"/>
<path style="fill:#888888; stroke:none;" d="M643 109L644 110L643 109z"/>
<path style="fill:#606060; stroke:none;" d="M650 109L650 110L659 110L650 109z"/>
<path style="fill:#878787; stroke:none;" d="M547 110L548 111L547 110z"/>
<path style="fill:#676767; stroke:none;" d="M662 110L663 111L662 110z"/>
<path style="fill:#878787; stroke:none;" d="M324 111L325 112L324 111z"/>
<path style="fill:#5c5c5c; stroke:none;" d="M323 112L324 113L323 112z"/>
<path style="fill:#dfdfdf; stroke:none;" d="M331 112L331 113L342 113L331 112M553 112L553 113L563 113L563 121C566.525 112.58 559.454 112.001 553 112z"/>
<path style="fill:#888888; stroke:none;" d="M646 112L647 113L646 112z"/>
<path style="fill:#000000; stroke:none;" d="M341 123L341 113C337.844 113 333.218 112.176 330.318 113.603C327.263 115.107 327.263 120.893 330.318 122.397C333.218 123.824 337.844 123 341 123z"/>
<path style="fill:#606060; stroke:none;" d="M341 113L341 122L342 122L341 113z"/>
<path style="fill:#c3c3c3; stroke:none;" d="M544.333 113.667L544.667 114.333L544.333 113.667z"/>
<path style="fill:#848484; stroke:none;" d="M550 113L551 114L550 113z"/>
<path style="fill:#000000; stroke:none;" d="M563 113C560.669 113 558.329 112.941 555.999 113.015C539.304 113.546 557.436 130.729 562.397 120.682C563.469 118.511 562.998 115.347 563 113z"/>
<path style="fill:#9f9f9f; stroke:none;" d="M648 113L648 114L658 114L648 113z"/>
<path style="fill:#7b7b7b; stroke:none;" d="M665 113L666 114L665 113z"/>
<path style="fill:#787878; stroke:none;" d="M659 114L660 115L659 114z"/>
<path style="fill:#7f7f7f; stroke:none;" d="M322 115L322 121L323 121L322 115z"/>
<path style="fill:#404040; stroke:none;" d="M660 115L660 121L661 121L660 115z"/>
<path style="fill:#3b5872; stroke:none;" d="M104.333 116.667L104.667 117.333L104.333 116.667z"/>
<path style="fill:#bfbfbf; stroke:none;" d="M327 116L327 120L328 120L327 116z"/>
<path style="fill:#456786; stroke:none;" d="M213 120L214 121L213 120z"/>
<path style="fill:#444444; stroke:none;" d="M457.333 121.667L457.667 122.333L457.333 121.667z"/>
<path style="fill:#939393; stroke:none;" d="M549 121L550 122L549 121z"/>
<path style="fill:#444444; stroke:none;" d="M580.333 121.667L580.667 122.333L580.333 121.667z"/>
<path style="fill:#9b9b9b; stroke:none;" d="M660 121L661 122L660 121z"/>
<path style="fill:#979797; stroke:none;" d="M544 122L545 123L544 122z"/>
<path style="fill:#8c8c8c; stroke:none;" d="M616 122L617 123L616 122z"/>
<path style="fill:#707070; stroke:none;" d="M636.667 122.333L637.333 122.667L636.667 122.333z"/>
<path style="fill:#7f7f7f; stroke:none;" d="M643 122L643 127L644 127L645 122L643 122z"/>
<path style="fill:#838383; stroke:none;" d="M659 122L660 123L659 122z"/>
<path style="fill:#6c6c6c; stroke:none;" d="M665 122L666 123L665 122z"/>
<path style="fill:#9c9c9c; stroke:none;" d="M323 123L324 124L323 123z"/>
<path style="fill:#606060; stroke:none;" d="M330 123L330 124L339 124L330 123z"/>
<path style="fill:#404040; stroke:none;" d="M465 123L465 124L475 124L465 123z"/>
<path style="fill:#6c6c6c; stroke:none;" d="M482 123L483 124L482 123z"/>
<path style="fill:#404040; stroke:none;" d="M551 123L551 124L560 124L551 123z"/>
<path style="fill:#575757; stroke:none;" d="M588 123L588 124L594 124L588 123z"/>
<path style="fill:#afafaf; stroke:none;" d="M594.667 123.333L595.333 123.667L594.667 123.333z"/>
<path style="fill:#7f7f7f; stroke:none;" d="M625 123L625 124L632 124L625 123z"/>
<path style="fill:#9f9f9f; stroke:none;" d="M637 123L635 126L635 127C637.649 126.432 638.355 125.412 637 123z"/>
<path style="fill:#7f7f7f; stroke:none;" d="M649 123L649 124L657 124L649 123z"/>
<path style="fill:#a0a0a0; stroke:none;" d="M545 124L546 125L545 124z"/>
<path style="fill:#585858; stroke:none;" d="M581 124L582 125L581 124z"/>
<path style="fill:#686868; stroke:none;" d="M617 124L618 125L617 124z"/>
<path style="fill:#949494; stroke:none;" d="M480 125L481 126L480 125z"/>
<path style="fill:#9c9c9c; stroke:none;" d="M546 125L547 126L546 125z"/>
<path style="fill:#686868; stroke:none;" d="M582 125L583 126L582 125z"/>
<path style="fill:#6c6c6c; stroke:none;" d="M618 125L619 126L618 125z"/>
<path style="fill:#a0a0a0; stroke:none;" d="M662 125L663 126L662 125z"/>
<path style="fill:#3e5d7a; stroke:none;" d="M109 126L110 127L109 126z"/>
<path style="fill:#9f9f9f; stroke:none;" d="M263 126L263 127L269 127L263 126z"/>
<path style="fill:#b3b3b3; stroke:none;" d="M326.667 126.333L327.333 126.667L326.667 126.333z"/>
<path style="fill:#a7a7a7; stroke:none;" d="M338 126L339 127L338 126z"/>
<path style="fill:#9f9f9f; stroke:none;" d="M342 126L342 127L347 127L342 126M401 126L401 127L406 127L401 126M438 126L438 127L443 127L438 126z"/>
<path style="fill:#bbbbbb; stroke:none;" d="M462.667 126.333L463.333 126.667L462.667 126.333z"/>
<path style="fill:#6c6c6c; stroke:none;" d="M477.667 126.333L478.333 126.667L477.667 126.333z"/>
<path style="fill:#9f9f9f; stroke:none;" d="M512 126L512 127L517 127L512 126M531 126L531 127L536 127L531 126z"/>
<path style="fill:#787878; stroke:none;" d="M560 126L561 127L560 126z"/>
<path style="fill:#9f9f9f; stroke:none;" d="M602 126L602 127L607 127L602 126z"/>
<path style="fill:#a7a7a7; stroke:none;" d="M620.667 126.333L621.333 126.667L620.667 126.333z"/>
<path style="fill:#c7c7c7; stroke:none;" d="M644 126L644 127L647 127L644 126z"/>
<path style="fill:#646464; stroke:none;" d="M659.667 126.333L660.333 126.667L659.667 126.333z"/>
<path style="fill:#3d5b76; stroke:none;" d="M110 127L111 128L110 127z"/>
<path style="fill:#404040; stroke:none;" d="M331 127L331 128L335 128L331 127M467 127L467 128L474 128L467 127M551 127L551 128L557 128L551 127M587 127L587 128L592 128L587 127M624 127L624 128L633 128L624 127M649 127L649 128L656 128L649 127z"/>
<path style="fill:#4f7699; stroke:none;" d="M196.667 131.333L197.333 131.667L196.667 131.333z"/>
<path style="fill:#2b4054; stroke:none;" d="M120 132L120 133L194 133L171 132L120 132z"/>
</svg>
